<?xml version="1.0" encoding="utf-8"?>
<!-- Generator: Adobe Illustrator 24.2.1, SVG Export Plug-In . SVG Version: 6.00 Build 0)  -->
<svg version="1.1" id="Layer_1" xmlns="http://www.w3.org/2000/svg" xmlns:xlink="http://www.w3.org/1999/xlink" x="0px" y="0px"
	 viewBox="0 0 122.88 102.74" style="enable-background:new 0 0 122.88 102.74;" xml:space="preserve">
<g>
	<path d="M86.35,29.93c-0.75,0.37-1.51,0.78-2.26,1.21c-2.25,1.32-4.47,2.93-6.74,4.78l-4.84-5.54c1.67-1.55,3.48-2.96,5.4-4.21
		c1.53-1,3.13-1.89,4.78-2.65c0.66-0.33,1.32-0.64,2-0.93c-3.19-5.65-7.78-9.7-12.98-12.2c-5.2-2.49-11.02-3.45-16.69-2.9
		c-5.63,0.54-11.1,2.59-15.62,6.1c-5.23,4.05-9.2,10.11-10.73,18.14l-0.48,2.51l-2.5,0.44c-2.45,0.43-4.64,1.02-6.56,1.77
		c-1.86,0.72-3.52,1.61-4.97,2.66c-1.16,0.84-2.16,1.78-3.01,2.8c-2.63,3.15-3.85,7.1-3.82,11.1c0.03,4.06,1.35,8.16,3.79,11.53
		c0.91,1.25,1.96,2.4,3.16,3.4c1.22,1.01,2.59,1.85,4.13,2.48c1.53,0.63,3.22,1.08,5.09,1.34h11.08v7.36h-11.2l-0.46-0.04
		c-2.67-0.34-5.09-0.97-7.29-1.88c-2.27-0.94-4.28-2.15-6.05-3.63c-1.68-1.4-3.15-2.99-4.4-4.72C1.84,64.25,0.04,58.63,0,53.03
		c-0.04-5.66,1.72-11.29,5.52-15.85c1.23-1.48,2.68-2.84,4.34-4.04c1.93-1.4,4.14-2.58,6.64-3.55c1.72-0.67,3.56-1.23,5.5-1.68
		c2.2-8.74,6.89-15.47,12.92-20.14c5.64-4.37,12.43-6.92,19.42-7.59c6.96-0.67,14.12,0.51,20.55,3.6
		c7.01,3.37,13.13,8.98,17.1,16.87l0,0l0,0c1.6-0.25,3.2-0.38,4.79-0.36c6.72,0.05,13.2,2.45,18.3,7.95
		c1.07,1.15,2.08,2.45,3.03,3.9c3.2,4.92,4.84,11.49,4.77,17.92c-0.07,6.31-1.77,12.59-5.25,17.21c-2.27,3.01-5.18,5.47-8.67,7.42
		c-3.36,1.88-7.28,3.31-11.68,4.33l-0.82,0.1h-7.2v-7.36h6.79c3.53-0.85,6.65-2,9.3-3.48c2.63-1.47,4.78-3.26,6.39-5.41
		c2.5-3.33,3.73-8.04,3.78-12.87c0.06-5.07-1.18-10.16-3.59-13.86c-0.69-1.07-1.45-2.03-2.25-2.89c-3.61-3.89-8.19-5.59-12.95-5.62
		C93.3,27.6,89.73,28.43,86.35,29.93L86.35,29.93L86.35,29.93L86.35,29.93L86.35,29.93z M43.81,48.35c12.61,0,9.5,0,19.99,0h0.64
		l0.46,0.46l16.51,16.57c0.24,0.31,0.4,0.67,0.46,1.1c0,12.05,0,21.39,0,33.44l0,0h-0.01c0,0.78-0.31,1.48-0.82,1.98h-0.01
		c-0.51,0.5-1.2,0.82-1.98,0.82v0.01l0,0H43.81l0,0v-0.01c-0.78,0-1.48-0.32-1.98-0.82c-0.5-0.51-0.82-1.2-0.82-1.98h0l0,0V51.16
		l0,0h0c0-0.78,0.32-1.48,0.82-1.98c0.5-0.5,1.2-0.82,1.98-0.82V48.35L43.81,48.35L43.81,48.35L43.81,48.35z M77.36,67.47H65l0,0
		l0,0c-0.94,0-1.79-0.39-2.41-1.02c-0.62-0.63-1-1.5-1-2.45l0,0l0,0V52.87H45.52v45.36h31.84C77.36,86.6,77.36,79.09,77.36,67.47
		L77.36,67.47L77.36,67.47z"/>
</g>
</svg>
